<svg width="54" height="54" viewBox="0 0 54 54" fill="none" xmlns="http://www.w3.org/2000/svg">
<mask id="path-1-inside-1_65_344" fill="white">
<path d="M27 0C34.4558 0 40.5 6.04416 40.5 13.5C47.9558 13.5 54 19.5442 54 27C54 34.4558 47.9558 40.5 40.5 40.5C40.5 47.9558 34.4558 54 27 54C19.5442 54 13.5 47.9558 13.5 40.5C6.04416 40.5 8.08023e-07 34.4558 0 27C3.25905e-07 19.5442 6.04416 13.5 13.5 13.5C13.5 6.04416 19.5442 1.64935e-06 27 0Z"/>
</mask>
<path d="M27 0C34.4558 0 40.5 6.04416 40.5 13.5C47.9558 13.5 54 19.5442 54 27C54 34.4558 47.9558 40.5 40.5 40.5C40.5 47.9558 34.4558 54 27 54C19.5442 54 13.5 47.9558 13.5 40.5C6.04416 40.5 8.08023e-07 34.4558 0 27C3.25905e-07 19.5442 6.04416 13.5 13.5 13.5C13.5 6.04416 19.5442 1.64935e-06 27 0Z" fill="#FEECDE"/>
<path d="M27 0V-2V-2V0ZM40.5 13.5H38.5V15.5H40.5V13.5ZM54 27H56V27H54ZM40.5 40.5V38.5H38.5V40.5H40.5ZM27 54V56V56V54ZM13.5 40.5H15.5V38.5H13.5V40.5ZM0 27H-2V27H0ZM13.5 13.5V15.5H15.5V13.5H13.5ZM27 0V2C33.3513 2 38.5 7.14873 38.5 13.5H40.5H42.5C42.5 4.93959 35.5604 -2 27 -2V0ZM40.5 13.5V15.5C46.8513 15.5 52 20.6487 52 27H54H56C56 18.4396 49.0604 11.5 40.5 11.5V13.5ZM54 27H52C52 33.3513 46.8513 38.5 40.5 38.5V40.5V42.5C49.0604 42.5 56 35.5604 56 27H54ZM40.5 40.5H38.5C38.5 46.8513 33.3513 52 27 52V54V56C35.5604 56 42.5 49.0604 42.5 40.5H40.5ZM27 54V52C20.6487 52 15.5 46.8513 15.5 40.5H13.5H11.5C11.5 49.0604 18.4396 56 27 56V54ZM13.5 40.5V38.5C7.14873 38.5 2 33.3513 2 27H0H-2C-2 35.5604 4.93959 42.5 13.5 42.5V40.5ZM0 27H2C2 20.6487 7.14873 15.5 13.5 15.5V13.5V11.5C4.93959 11.5 -2 18.4396 -2 27H0ZM13.5 13.5H15.5C15.5 7.14873 20.6487 2 27 2V0V-2C18.4396 -2 11.5 4.93959 11.5 13.5H13.5Z" fill="#96181B" mask="url(#path-1-inside-1_65_344)"/>
<mask id="path-3-inside-2_65_344" fill="white">
<path d="M27 15.5C30.0764 15.5 32.5882 17.916 32.7422 20.9541L32.75 21.25L33.0459 21.2578C36.084 21.4118 38.5 23.9236 38.5 27C38.5 30.1756 35.9256 32.75 32.75 32.75L32.7422 33.0459C32.5882 36.084 30.0764 38.5 27 38.5C23.9236 38.5 21.4118 36.084 21.2578 33.0459L21.25 32.75L20.9541 32.7422C17.916 32.5882 15.5 30.0764 15.5 27C15.5 23.8244 18.0744 21.25 21.25 21.25L21.2578 20.9541C21.4118 17.916 23.9236 15.5 27 15.5Z"/>
</mask>
<path d="M27 15.5C30.0764 15.5 32.5882 17.916 32.7422 20.9541L32.75 21.25L33.0459 21.2578C36.084 21.4118 38.5 23.9236 38.5 27C38.5 30.1756 35.9256 32.75 32.75 32.75L32.7422 33.0459C32.5882 36.084 30.0764 38.5 27 38.5C23.9236 38.5 21.4118 36.084 21.2578 33.0459L21.25 32.75L20.9541 32.7422C17.916 32.5882 15.5 30.0764 15.5 27C15.5 23.8244 18.0744 21.25 21.25 21.25L21.2578 20.9541C21.4118 17.916 23.9236 15.5 27 15.5Z" fill="#96181B"/>
<path d="M27 15.5V13.5V13.5V15.5ZM32.7422 20.9541L34.7415 20.9013L34.7409 20.8771L34.7396 20.8528L32.7422 20.9541ZM32.75 21.25L30.7507 21.3028L30.8008 23.1992L32.6972 23.2493L32.75 21.25ZM33.0459 21.2578L33.1472 19.2604L33.1229 19.2591L33.0987 19.2585L33.0459 21.2578ZM38.5 27H40.5V27H38.5ZM32.75 32.75V30.75H30.8021L30.7507 32.6972L32.75 32.75ZM32.7422 33.0459L34.7396 33.1472L34.7409 33.1229L34.7415 33.0987L32.7422 33.0459ZM27 38.5V40.5V40.5V38.5ZM21.2578 33.0459L19.2585 33.0987L19.2591 33.1229L19.2604 33.1472L21.2578 33.0459ZM21.25 32.75L23.2493 32.6972L23.1992 30.8008L21.3028 30.7507L21.25 32.75ZM20.9541 32.7422L20.8528 34.7396L20.8771 34.7409L20.9013 34.7415L20.9541 32.7422ZM15.5 27H13.5V27H15.5ZM21.25 21.25V23.25H23.1979L23.2493 21.3028L21.25 21.25ZM21.2578 20.9541L19.2604 20.8528L19.2591 20.8771L19.2585 20.9013L21.2578 20.9541ZM27 15.5V17.5C29.0056 17.5 30.6444 19.0755 30.7448 21.0554L32.7422 20.9541L34.7396 20.8528C34.532 16.7565 31.1472 13.5 27 13.5V15.5ZM32.7422 20.9541L30.7429 21.0069L30.7507 21.3028L32.75 21.25L34.7493 21.1972L34.7415 20.9013L32.7422 20.9541ZM32.75 21.25L32.6972 23.2493L32.9931 23.2571L33.0459 21.2578L33.0987 19.2585L32.8028 19.2507L32.75 21.25ZM33.0459 21.2578L32.9446 23.2552C34.9245 23.3556 36.5 24.9944 36.5 27H38.5H40.5C40.5 22.8528 37.2435 19.468 33.1472 19.2604L33.0459 21.2578ZM38.5 27H36.5C36.5 29.0711 34.8211 30.75 32.75 30.75V32.75V34.75C37.0302 34.75 40.5 31.2802 40.5 27H38.5ZM32.75 32.75L30.7507 32.6972L30.7429 32.9931L32.7422 33.0459L34.7415 33.0987L34.7493 32.8028L32.75 32.75ZM32.7422 33.0459L30.7448 32.9446C30.6444 34.9245 29.0056 36.5 27 36.5V38.5V40.5C31.1472 40.5 34.532 37.2435 34.7396 33.1472L32.7422 33.0459ZM27 38.5V36.5C24.9944 36.5 23.3556 34.9245 23.2552 32.9446L21.2578 33.0459L19.2604 33.1472C19.468 37.2435 22.8528 40.5 27 40.5V38.5ZM21.2578 33.0459L23.2571 32.9931L23.2493 32.6972L21.25 32.75L19.2507 32.8028L19.2585 33.0987L21.2578 33.0459ZM21.25 32.75L21.3028 30.7507L21.0069 30.7429L20.9541 32.7422L20.9013 34.7415L21.1972 34.7493L21.25 32.75ZM20.9541 32.7422L21.0554 30.7448C19.0755 30.6444 17.5 29.0056 17.5 27H15.5H13.5C13.5 31.1472 16.7565 34.532 20.8528 34.7396L20.9541 32.7422ZM15.5 27H17.5C17.5 24.9289 19.1789 23.25 21.25 23.25V21.25V19.25C16.9698 19.25 13.5 22.7198 13.5 27H15.5ZM21.25 21.25L23.2493 21.3028L23.2571 21.0069L21.2578 20.9541L19.2585 20.9013L19.2507 21.1972L21.25 21.25ZM21.2578 20.9541L23.2552 21.0554C23.3556 19.0755 24.9944 17.5 27 17.5V15.5V13.5C22.8528 13.5 19.468 16.7565 19.2604 20.8528L21.2578 20.9541Z" fill="#96181B" mask="url(#path-3-inside-2_65_344)"/>
</svg>
