<svg width="3717" height="1067" viewBox="0 0 3717 1067" fill="none" xmlns="http://www.w3.org/2000/svg">
<path fill-rule="evenodd" clip-rule="evenodd" d="M212.739 403.092C89.1039 442.889 -31.5067 481.711 7.44563 530.273C45.5525 577.78 201.02 599.649 360.244 622.048C492.253 640.623 626.845 659.557 699.277 693.764C761.419 723.109 751.248 761.158 741.227 798.643C729.955 840.806 718.874 882.259 811.108 909.823C906.976 938.471 1046.78 934.288 1190.27 929.995C1298.32 926.762 1408.47 923.466 1503.48 934.086C1611.31 946.137 1703.19 973.359 1793.14 1000.01C1920.02 1037.6 2043.08 1074.06 2201.7 1065.24C2377.7 1055.45 2405.3 1010.29 2435.56 960.771C2461.15 918.903 2488.63 873.918 2609.34 844.557C2713.17 819.302 2830.5 816.478 2957.57 813.421C3094.77 810.119 3243.3 806.545 3398.43 774.161C3628.03 726.225 3721.13 627.908 3716.6 543.098C3708.31 388.16 3355.22 266.298 2870.17 149.684C2385.12 33.0691 1807.58 -25.8627 1297.26 10.8579C671.05 55.919 682.002 150.886 405.547 327.577C363.148 354.676 287.392 379.064 212.739 403.092Z" fill="#FBACB0"/>
</svg>
