<svg width="3692" height="1584" viewBox="0 0 3692 1584" fill="none" xmlns="http://www.w3.org/2000/svg">
<g clip-path="url(#clip0_202_4)">
<path fill-rule="evenodd" clip-rule="evenodd" d="M277.206 879.512C167.939 952.432 61.3458 1023.57 108.212 1085.71C154.06 1146.5 306.102 1154.98 461.817 1163.67C590.918 1170.88 628.362 1179.06 715.266 1215C789.825 1245.83 787.557 1297.98 785.322 1349.35C782.809 1407.13 855.252 1475.45 948.425 1500.8C1045.27 1527.16 1177.14 1501.56 1312.47 1475.3C1414.4 1455.52 1518.29 1435.35 1610.65 1436.71C1715.46 1438.25 1808.23 1463.18 1899.06 1487.59C2027.15 1522.02 2151.4 1555.42 2300.19 1520.69C2465.27 1482.17 2639.11 1574.06 2657.75 1500.8C2724.25 1360.77 2857.86 1382.93 2966.48 1324.97C3059.9 1275.1 2846.47 1085.26 2966.48 1063.03C3096.05 1039.03 3236.33 1013.05 3377 946.008C3585.21 846.769 3653.57 696.647 3632 579.143C3592.58 364.482 3232.57 244.646 2748.36 150.778C2264.15 56.9093 1847.2 88.8279 1370.22 212.133C784.923 363.444 671.335 461.832 444.867 747.057C410.134 790.801 343.183 835.485 277.206 879.512Z" fill="#D9D9D9"/>
</g>
<defs>
<clipPath id="clip0_202_4">
<rect width="3692" height="1584" fill="white"/>
</clipPath>
</defs>
</svg>
