<svg width="38" height="38" viewBox="0 0 38 38" fill="none" xmlns="http://www.w3.org/2000/svg">
<mask id="path-1-inside-1_65_320" fill="white">
<path d="M19 0C24.0826 0 28.2327 3.99142 28.4873 9.01074L28.5 9.5L28.9893 9.5127C34.0086 9.76734 38 13.9174 38 19C38 24.2467 33.7467 28.5 28.5 28.5L28.4873 28.9893C28.2327 34.0086 24.0826 38 19 38C13.9174 38 9.76734 34.0086 9.5127 28.9893L9.5 28.5L9.01074 28.4873C3.99142 28.2327 8.5133e-07 24.0826 0 19C2.29341e-07 13.7533 4.25329 9.5 9.5 9.5L9.5127 9.01074C9.76734 3.99142 13.9174 8.23847e-07 19 0Z"/>
</mask>
<path d="M19 0C24.0826 0 28.2327 3.99142 28.4873 9.01074L28.5 9.5L28.9893 9.5127C34.0086 9.76734 38 13.9174 38 19C38 24.2467 33.7467 28.5 28.5 28.5L28.4873 28.9893C28.2327 34.0086 24.0826 38 19 38C13.9174 38 9.76734 34.0086 9.5127 28.9893L9.5 28.5L9.01074 28.4873C3.99142 28.2327 8.5133e-07 24.0826 0 19C2.29341e-07 13.7533 4.25329 9.5 9.5 9.5L9.5127 9.01074C9.76734 3.99142 13.9174 8.23847e-07 19 0Z" fill="#FEECDE"/>
<path d="M19 0V-2V-2V0ZM28.4873 9.01074L30.4866 8.95886L30.486 8.93412L30.4847 8.90941L28.4873 9.01074ZM28.5 9.5L26.5007 9.55188L26.5499 11.4501L28.4481 11.4993L28.5 9.5ZM28.9893 9.5127L29.0906 7.51526L29.0659 7.51401L29.0411 7.51337L28.9893 9.5127ZM38 19H40V19H38ZM28.5 28.5V26.5H26.5512L26.5007 28.4481L28.5 28.5ZM28.4873 28.9893L30.4847 29.0906L30.486 29.0659L30.4866 29.0411L28.4873 28.9893ZM19 38V40V40V38ZM9.5127 28.9893L7.51337 29.0411L7.51401 29.0659L7.51526 29.0906L9.5127 28.9893ZM9.5 28.5L11.4993 28.4481L11.4501 26.5499L9.55188 26.5007L9.5 28.5ZM9.01074 28.4873L8.90941 30.4847L8.93412 30.486L8.95886 30.4866L9.01074 28.4873ZM0 19H-2V19H0ZM9.5 9.5V11.5H11.4488L11.4993 9.55188L9.5 9.5ZM9.5127 9.01074L7.51526 8.90941L7.51401 8.93412L7.51337 8.95886L9.5127 9.01074ZM19 0V2C23.0119 2 26.2889 5.15103 26.4899 9.11208L28.4873 9.01074L30.4847 8.90941C30.1764 2.8318 25.1533 -2 19 -2V0ZM28.4873 9.01074L26.488 9.06262L26.5007 9.55188L28.5 9.5L30.4993 9.44812L30.4866 8.95886L28.4873 9.01074ZM28.5 9.5L28.4481 11.4993L28.9374 11.512L28.9893 9.5127L29.0411 7.51337L28.5519 7.50067L28.5 9.5ZM28.9893 9.5127L28.8879 11.5101C32.849 11.7111 36 14.9881 36 19H38H40C40 12.8467 35.1682 7.8236 29.0906 7.51526L28.9893 9.5127ZM38 19H36C36 23.1421 32.6421 26.5 28.5 26.5V28.5V30.5C34.8513 30.5 40 25.3513 40 19H38ZM28.5 28.5L26.5007 28.4481L26.488 28.9374L28.4873 28.9893L30.4866 29.0411L30.4993 28.5519L28.5 28.5ZM28.4873 28.9893L26.4899 28.8879C26.2889 32.849 23.0119 36 19 36V38V40C25.1533 40 30.1764 35.1682 30.4847 29.0906L28.4873 28.9893ZM19 38V36C14.9881 36 11.7111 32.849 11.5101 28.8879L9.5127 28.9893L7.51526 29.0906C7.8236 35.1682 12.8467 40 19 40V38ZM9.5127 28.9893L11.512 28.9374L11.4993 28.4481L9.5 28.5L7.50067 28.5519L7.51337 29.0411L9.5127 28.9893ZM9.5 28.5L9.55188 26.5007L9.06262 26.488L9.01074 28.4873L8.95886 30.4866L9.44812 30.4993L9.5 28.5ZM9.01074 28.4873L9.11208 26.4899C5.15104 26.2889 2 23.0119 2 19H0H-2C-2 25.1533 2.8318 30.1764 8.90941 30.4847L9.01074 28.4873ZM0 19H2C2 14.8579 5.35786 11.5 9.5 11.5V9.5V7.5C3.14873 7.5 -2 12.6487 -2 19H0ZM9.5 9.5L11.4993 9.55188L11.512 9.06262L9.5127 9.01074L7.51337 8.95886L7.50067 9.44812L9.5 9.5ZM9.5127 9.01074L11.5101 9.11208C11.7111 5.15104 14.9881 2 19 2V0V-2C12.8467 -2 7.8236 2.8318 7.51526 8.90941L9.5127 9.01074Z" fill="#96181B" mask="url(#path-1-inside-1_65_320)"/>
<path d="M12.9199 17.1364C12.3676 17.1364 11.9199 17.5841 11.9199 18.1364C11.9199 18.6886 12.3676 19.1364 12.9199 19.1364L12.9199 18.1364L12.9199 17.1364ZM26.547 18.8435C26.9376 18.4529 26.9376 17.8198 26.547 17.4292L20.1831 11.0653C19.7925 10.6748 19.1594 10.6748 18.7689 11.0653C18.3783 11.4558 18.3783 12.089 18.7689 12.4795L24.4257 18.1364L18.7689 23.7932C18.3783 24.1837 18.3783 24.8169 18.7689 25.2074C19.1594 25.5979 19.7925 25.5979 20.1831 25.2074L26.547 18.8435ZM12.9199 18.1364L12.9199 19.1364L25.8399 19.1364L25.8399 18.1364L25.8399 17.1364L12.9199 17.1364L12.9199 18.1364Z" fill="#96181B"/>
</svg>
