<svg width="40" height="40" viewBox="0 0 40 40" fill="none" xmlns="http://www.w3.org/2000/svg">
<path d="M20 40C31.0457 40 40 31.0457 40 20C40 8.95431 31.0457 0 20 0C8.95431 0 0 8.95431 0 20C0 31.0457 8.95431 40 20 40Z" fill="#96181B"/>
<path d="M14.7053 24.3819L14.5415 28.5281L16.6832 25.9168L14.7053 24.3819Z" fill="#FEECDE"/>
<path d="M26.3682 11.6064C22.9504 12.9817 11.9201 17.5795 7.74499 19.3214C7.19368 19.5515 7.23159 20.344 7.80157 20.5217L12.5893 22.0155L23.3229 15.5077C23.3886 15.4682 23.4558 15.5557 23.4003 15.6085L15.1937 23.4101C15.1937 23.4101 20.2392 27.1053 22.6328 28.8505C23.2226 29.2801 24.0589 28.9498 24.1934 28.2325C24.8813 24.5698 26.6014 15.4122 27.189 12.2815C27.2781 11.8103 26.8127 11.4271 26.3682 11.6064Z" fill="#FEECDE"/>
</svg>
