<svg width="40" height="40" viewBox="0 0 40 40" fill="none" xmlns="http://www.w3.org/2000/svg">
<path d="M20 40C31.0457 40 40 31.0457 40 20C40 8.95431 31.0457 0 20 0C8.95431 0 0 8.95431 0 20C0 31.0457 8.95431 40 20 40Z" fill="#96181B"/>
<path d="M7.97521 13.8633C9.10222 13.8633 11.5072 13.8633 12.3194 13.8633C12.488 13.8633 12.6385 13.9627 12.7088 14.1156C13.7063 16.286 14.9226 18.25 16.3874 19.979C16.5131 20.182 16.8179 20.1596 16.9086 19.9389C17.3668 18.8257 18.2105 16.1178 16.5766 14.1949C16.4314 14.0238 16.4901 13.7544 16.6975 13.6684C18.3514 12.979 19.9724 12.8777 21.5471 13.5843C21.8782 13.7329 22.0946 14.0611 22.0946 14.4237L22.4634 20C22.4634 20.248 22.6899 20.4462 22.9321 20.3946C24.7475 20.0091 25.8177 17.2888 26.8754 14.4486C27.0059 14.0989 27.336 13.8638 27.7096 13.8638H31.7098C32.037 13.8638 32.3012 14.1557 32.241 14.4772C31.865 16.4933 29.8375 19.1066 28.7773 20.3631C28.4104 20.7978 28.4076 21.4318 28.7731 21.8675L32.35 26.1267C32.607 26.4329 32.3896 26.8992 31.9897 26.8992H27.4626C27.0909 26.8992 26.7364 26.7439 26.4846 26.4706L23.3191 23.8354C23.1542 23.6562 22.8437 23.5927 22.6889 23.7804C22.2967 24.2572 22.3273 24.8453 22.1419 26.1811C22.0841 26.5987 21.7086 26.8992 21.2867 26.8992H18.1909C17.7509 26.8992 17.3162 26.807 16.9182 26.6183C15.1419 25.776 10.2894 22.792 7.56053 14.4357C7.46928 14.1557 7.68044 13.8633 7.97521 13.8633Z" fill="#FEECDE"/>
</svg>
